<svg width="18" height="18" viewBox="0 0 18 18" fill="none" xmlns="http://www.w3.org/2000/svg">
<path d="M13.7996 14.1998C14.2505 14.1998 14.6829 14.3789 15.0017 14.6977C15.3205 15.0166 15.4996 15.449 15.4996 15.8998C15.4996 16.3507 15.3205 16.7831 15.0017 17.1019C14.6829 17.4207 14.2505 17.5998 13.7996 17.5998C13.3488 17.5998 12.9163 17.4207 12.5975 17.1019C12.2787 16.7831 12.0996 16.3507 12.0996 15.8998C12.0996 14.9563 12.8561 14.1998 13.7996 14.1998ZM0.199646 0.599854H2.97914L3.77814 2.29985H16.3496C16.575 2.29985 16.7912 2.3894 16.9507 2.54881C17.1101 2.70821 17.1996 2.92441 17.1996 3.14985C17.1996 3.29435 17.1571 3.43885 17.0976 3.57485L14.0546 9.07434C13.7656 9.59283 13.2046 9.94983 12.5671 9.94983H6.23463L5.46963 11.3353L5.44413 11.4373C5.44413 11.4937 5.46652 11.5477 5.50637 11.5876C5.54623 11.6274 5.60028 11.6498 5.65663 11.6498H15.4996V13.3498H5.29963C4.84877 13.3498 4.41637 13.1707 4.09756 12.8519C3.77874 12.5331 3.59964 12.1007 3.59964 11.6498C3.59964 11.3523 3.67614 11.0718 3.80364 10.8338L4.95964 8.75134L1.89964 2.29985H0.199646V0.599854ZM5.29963 14.1998C5.7505 14.1998 6.1829 14.3789 6.50171 14.6977C6.82052 15.0166 6.99963 15.449 6.99963 15.8998C6.99963 16.3507 6.82052 16.7831 6.50171 17.1019C6.1829 17.4207 5.7505 17.5998 5.29963 17.5998C4.84877 17.5998 4.41637 17.4207 4.09756 17.1019C3.77874 16.7831 3.59964 16.3507 3.59964 15.8998C3.59964 14.9563 4.35614 14.1998 5.29963 14.1998ZM12.9496 8.24984L15.3126 3.99985H4.56864L6.57463 8.24984H12.9496Z" fill="#151718"/>
</svg>
