<svg width="19" height="20" viewBox="0 0 19 20" fill="none" xmlns="http://www.w3.org/2000/svg">
<path d="M0.799927 16.4748C0.799927 15.3477 1.24769 14.2667 2.04472 13.4696C2.84175 12.6726 3.92275 12.2249 5.04992 12.2249H13.5499C14.6771 12.2249 15.7581 12.6726 16.5551 13.4696C17.3521 14.2667 17.7999 15.3477 17.7999 16.4748C17.7999 17.0384 17.576 17.5789 17.1775 17.9774C16.779 18.376 16.2385 18.5998 15.6749 18.5998H2.92492C2.36134 18.5998 1.82084 18.376 1.42232 17.9774C1.02381 17.5789 0.799927 17.0384 0.799927 16.4748Z" stroke="#151718" stroke-width="1.5" stroke-linejoin="round"/>
<path d="M9.29961 7.97484C11.06 7.97484 12.4871 6.54775 12.4871 4.78735C12.4871 3.02694 11.06 1.59985 9.29961 1.59985C7.53921 1.59985 6.11212 3.02694 6.11212 4.78735C6.11212 6.54775 7.53921 7.97484 9.29961 7.97484Z" stroke="#151718" stroke-width="1.5"/>
</svg>
